<svg width="379" height="379" viewBox="0 0 379 379" fill="none" xmlns="http://www.w3.org/2000/svg">
<rect width="379" height="379" rx="8" fill="#0E0E0E" fill-opacity="0.8"/>
<path d="M290.533 130.118C287.766 127.366 279.015 125 276.249 127.752C273.482 130.505 173.55 218.315 173.55 218.315L149.656 195.115L127.802 173.648C126.381 172.235 122.444 169.576 118.628 169.532C115.012 169.49 111.505 171.995 110.354 173.14C108.84 174.647 106.217 177.765 106.217 179.823C105.257 184.079 106.727 188.369 108.286 190.114L166.48 248.494C168.324 250.329 170.783 251.247 173.55 251.247C176.316 251.247 178.468 250.329 180.62 248.494L293.831 142.657C296.598 140.517 293.299 132.87 290.533 130.118Z" fill="#40CED7"/>
</svg>
